<?xml version="1.0" encoding="UTF-8"?>
<svg id="Camada_1" data-name="Camada 1" xmlns="http://www.w3.org/2000/svg" xmlns:xlink="http://www.w3.org/1999/xlink" viewBox="0 0 1000 500">
  <defs>
    <style>
      .cls-1 {
        fill: url(#Gradiente_sem_nome_17-2);
      }

      .cls-1, .cls-2, .cls-3, .cls-4, .cls-5, .cls-6, .cls-7, .cls-8, .cls-9, .cls-10, .cls-11, .cls-12, .cls-13, .cls-14, .cls-15, .cls-16 {
        stroke: #000;
        stroke-miterlimit: 10;
        stroke-width: .25px;
      }

      .cls-2 {
        fill: url(#Gradiente_sem_nome_17-14);
      }

      .cls-3 {
        fill: url(#Gradiente_sem_nome_17-6);
      }

      .cls-4 {
        fill: url(#Gradiente_sem_nome_17-3);
      }

      .cls-5 {
        fill: url(#Gradiente_sem_nome_17-10);
      }

      .cls-6 {
        fill: url(#Gradiente_sem_nome_17-16);
      }

      .cls-7 {
        fill: url(#Gradiente_sem_nome_17-4);
      }

      .cls-8 {
        fill: url(#Gradiente_sem_nome_17-7);
      }

      .cls-9 {
        fill: url(#Gradiente_sem_nome_17-15);
      }

      .cls-10 {
        fill: url(#Gradiente_sem_nome_17-8);
      }

      .cls-11 {
        fill: url(#Gradiente_sem_nome_17-12);
      }

      .cls-12 {
        fill: url(#Gradiente_sem_nome_17-9);
      }

      .cls-13 {
        fill: url(#Gradiente_sem_nome_17-13);
      }

      .cls-14 {
        fill: url(#Gradiente_sem_nome_17-5);
      }

      .cls-15 {
        fill: url(#Gradiente_sem_nome_17);
      }

      .cls-16 {
        fill: url(#Gradiente_sem_nome_17-11);
      }
    </style>
    <linearGradient id="Gradiente_sem_nome_17" data-name="Gradiente sem nome 17" x1="-1550.45" y1="2227.79" x2="-1546.22" y2="2227.79" gradientTransform="translate(7581.11 10871.07) scale(4.73 -4.73)" gradientUnits="userSpaceOnUse">
      <stop offset="0" stop-color="#73583b"/>
      <stop offset=".08" stop-color="#73583b"/>
      <stop offset=".5" stop-color="#fef6b2"/>
      <stop offset=".76" stop-color="#a88c4a"/>
      <stop offset="1" stop-color="#a88c4a"/>
    </linearGradient>
    <linearGradient id="Gradiente_sem_nome_17-2" data-name="Gradiente sem nome 17" x1="-1565.56" y1="2256.24" x2="-1561.33" y2="2256.24" gradientTransform="translate(8139.04 11619.08) scale(5 -5)" xlink:href="#Gradiente_sem_nome_17"/>
    <linearGradient id="Gradiente_sem_nome_17-3" data-name="Gradiente sem nome 17" x1="-1546.96" y1="2245.58" x2="-1542.73" y2="2245.58" gradientTransform="translate(7943.15 11330.13) scale(4.9 -4.9)" xlink:href="#Gradiente_sem_nome_17"/>
    <linearGradient id="Gradiente_sem_nome_17-4" data-name="Gradiente sem nome 17" x1="-1543.74" y1="2252.22" x2="-1539.51" y2="2252.22" gradientTransform="translate(8086.59 11508.17) scale(4.96 -4.96)" xlink:href="#Gradiente_sem_nome_17"/>
    <linearGradient id="Gradiente_sem_nome_17-5" data-name="Gradiente sem nome 17" x1="-1468.15" y1="2181.69" x2="-1463.92" y2="2181.69" gradientTransform="translate(6872.82 9816.99) scale(4.35 -4.35)" xlink:href="#Gradiente_sem_nome_17"/>
    <linearGradient id="Gradiente_sem_nome_17-6" data-name="Gradiente sem nome 17" x1="-1501.64" y1="2227.79" x2="-1497.41" y2="2227.79" gradientTransform="translate(7652.68 10871.07) scale(4.73 -4.73)" xlink:href="#Gradiente_sem_nome_17"/>
    <linearGradient id="Gradiente_sem_nome_17-7" data-name="Gradiente sem nome 17" x1="-1447" y1="2181.69" x2="-1442.77" y2="2181.69" gradientTransform="translate(6901.32 9816.99) scale(4.35 -4.35)" xlink:href="#Gradiente_sem_nome_17"/>
    <linearGradient id="Gradiente_sem_nome_17-8" data-name="Gradiente sem nome 17" x1="-699.13" y1="1435.72" x2="-694.91" y2="1435.72" gradientTransform="translate(1986.6 3033.68) scale(1.88 -1.88)" xlink:href="#Gradiente_sem_nome_17"/>
    <linearGradient id="Gradiente_sem_nome_17-9" data-name="Gradiente sem nome 17" x1="-1473.96" y1="2227.79" x2="-1469.73" y2="2227.79" gradientTransform="translate(7693.27 10871.07) scale(4.73 -4.73)" xlink:href="#Gradiente_sem_nome_17"/>
    <linearGradient id="Gradiente_sem_nome_17-10" data-name="Gradiente sem nome 17" x1="-1952.49" y1="2696.63" x2="-1948.26" y2="2696.63" gradientTransform="translate(85722.42 118415.12) scale(43.83 -43.83)" xlink:href="#Gradiente_sem_nome_17"/>
    <linearGradient id="Gradiente_sem_nome_17-11" data-name="Gradiente sem nome 17" x1="-1894.79" y1="2634.39" x2="-1890.56" y2="2634.39" gradientTransform="translate(38852.6 53875.21) scale(20.37 -20.37)" xlink:href="#Gradiente_sem_nome_17"/>
    <linearGradient id="Gradiente_sem_nome_17-12" data-name="Gradiente sem nome 17" x1="-1927.27" y1="2673.21" x2="-1923.05" y2="2673.21" gradientTransform="translate(59192.13 81837.48) scale(30.54 -30.54)" xlink:href="#Gradiente_sem_nome_17"/>
    <linearGradient id="Gradiente_sem_nome_17-13" data-name="Gradiente sem nome 17" x1="-1884.57" y1="2637.91" x2="-1880.34" y2="2637.91" gradientTransform="translate(40209 55622.05) scale(21.01 -21.01)" xlink:href="#Gradiente_sem_nome_17"/>
    <linearGradient id="Gradiente_sem_nome_17-14" data-name="Gradiente sem nome 17" x1="-1917.67" y1="2673.21" x2="-1913.44" y2="2673.21" gradientTransform="translate(59283.06 81837.48) scale(30.54 -30.54)" xlink:href="#Gradiente_sem_nome_17"/>
    <linearGradient id="Gradiente_sem_nome_17-15" data-name="Gradiente sem nome 17" x1="-1887.22" y1="2635.45" x2="-1882.99" y2="2635.45" gradientTransform="translate(39556.32 54767.32) scale(20.7 -20.7)" xlink:href="#Gradiente_sem_nome_17"/>
    <linearGradient id="Gradiente_sem_nome_17-16" data-name="Gradiente sem nome 17" x1="-1990.31" y1="2740.06" x2="-1986.08" y2="2740.06" gradientTransform="translate(446358.19 614777.79) scale(224.26 -224.26)" xlink:href="#Gradiente_sem_nome_17"/>
  </defs>
  <g id="g1692">
    <g id="g1694">
      <g id="g1700">
        <g id="g1702">
          <path id="path1716" class="cls-15" d="M253.94,322.56s-.06.02-.06.06h0s.02.11.07.2h0c.05.09.08.17.08.23h0s0,.03-.01.05h0s0,.02,0,.01h0l-5.25,15.23c-.15.44-.33.78-.56,1.03h0c-.21.25-.44.43-.66.56h0c-.24.13-.46.21-.68.25h0c-.22.04-.42.07-.58.07h0c-.07,0-.1.03-.1.11h0v.51c0,.07.03.1.1.1h7.07s.07-.01.08-.04h0s.02-.05.02-.06h0v-.51s0-.05-.02-.07h0s-.05-.04-.08-.04h-.34c-.2,0-.42-.02-.68-.05h0c-.26-.04-.51-.1-.76-.18h0c-.24-.08-.46-.19-.64-.33h0c-.19-.15-.32-.33-.38-.55h0s-.02-.05-.03-.08h0s-.01-.06-.01-.08h0s.03-.11.05-.2h0c.04-.09.08-.24.16-.43h0c.07-.21.16-.49.29-.86h0c.13-.36.29-.82.48-1.39h0c.19-.56.42-1.26.7-2.07h0s.02-.05.04-.1h0c.04-.06.07-.12.13-.18h0c.05-.07.11-.12.19-.17h0c.08-.05.17-.07.29-.07h4.71c.1,0,.2.02.27.07h0c.07.05.14.11.18.18h0c.05.07.08.12.1.19h0c.03.06.04.1.05.12h0l1.71,4.72c.02.07.03.13.03.18h0c0,.22-.06.4-.17.55h0c-.11.15-.26.26-.43.36h0c-.18.1-.37.16-.59.21h0c-.2.05-.42.08-.63.11h0c-.21.02-.41.04-.58.05h0c-.18,0-.32.02-.41.03h0s-.05,0-.08,0h0s-.07,0-.1,0h0s-.07.01-.09.04h0s-.02.05-.02.07h0v.51s0,.04.02.06h0s.05.04.09.04h9.16s.07-.01.09-.04h0s.02-.05.02-.06h0v-.5s-.01-.06-.02-.08h0s-.05-.04-.09-.04h0c-.19,0-.39-.04-.6-.1h0c-.21-.07-.37-.14-.5-.2h0c-.26-.11-.47-.23-.64-.33h0c-.16-.11-.3-.23-.41-.37h0c-.11-.13-.2-.28-.28-.46h0c-.07-.17-.16-.38-.25-.63h0l-5.53-15.5s-.03-.07-.07-.08h0s-.05-.02-.07-.02h-3.78ZM253.01,332s-.03-.07-.03-.13h0s0-.08.01-.13h0s.02-.09.04-.13h0l1.65-4.75c.05-.12.11-.2.19-.27h0c.09-.07.17-.1.24-.1h0c.07,0,.15.03.23.08h0c.09.06.15.15.19.27h0l1.74,4.77s.03.08.04.12h0s.02.07.02.11h0c0,.06-.02.1-.05.14h0s-.09.06-.19.06h-3.92c-.08,0-.14-.02-.16-.05"/>
        </g>
      </g>
    </g>
  </g>
  <g id="g1718">
    <g id="g1720">
      <g id="g1726">
        <g id="g1728">
          <path id="path1742" class="cls-1" d="M314.34,322.41c-.59,0-1.14,0-1.64.01h0l-5.37.1h-.29c-.05,0-.08.01-.09.04h0s-.02.06-.02.06h0v.56s0,.03.02.06h0s.04.05.09.05h.84c.19,0,.39.03.61.08h0c.21.05.41.14.59.25h0c.18.11.33.26.44.46h0c.12.19.18.41.18.68h0v13.92c0,.36-.08.64-.26.85h0c-.18.2-.39.36-.65.45h0c-.25.1-.51.16-.78.19h0c-.27.02-.5.03-.68.03h-.29c-.05,0-.08.01-.09.05h0s-.02.05-.02.06h0v.56s0,.03.02.06h0s.04.05.09.05h10.7c.91,0,1.79-.1,2.65-.32h0c.86-.21,1.67-.52,2.44-.91h0c.77-.4,1.47-.88,2.11-1.45h0c.64-.57,1.19-1.21,1.66-1.92h0c.46-.71.83-1.48,1.09-2.32h0c.26-.84.39-1.73.39-2.67h0c0-.97-.17-1.93-.52-2.86h0c-.34-.92-.82-1.78-1.42-2.54h0c-.6-.77-1.32-1.42-2.16-1.96h0c-.83-.54-1.73-.91-2.7-1.11h0c-.51-.11-.96-.19-1.37-.25h0c-.41-.06-.81-.11-1.22-.15h0c-.39-.04-.81-.07-1.25-.08h0c-.43,0-.93-.02-1.48-.02h0c-.51,0-1.05,0-1.63.01M315.24,339.95c-.36,0-.66-.05-.93-.11h0c-.27-.07-.48-.17-.64-.31h0c-.16-.14-.24-.34-.24-.59h0v-15.19c0-.12.02-.21.07-.27h0c.03-.06.12-.08.26-.08h3.16c1.22,0,2.29.2,3.2.6h0c.9.4,1.65.96,2.24,1.68h0c.6.72,1.05,1.58,1.34,2.59h0c.29,1,.43,2.1.43,3.3h0c0,2.74-.64,4.82-1.93,6.24h0c-1.3,1.43-3.24,2.14-5.82,2.14h0c-.39,0-.77,0-1.13-.01"/>
        </g>
      </g>
    </g>
  </g>
  <g id="g1744">
    <g id="g1746">
      <g id="g1752">
        <g id="g1754">
          <path id="path1768" class="cls-4" d="M380.24,322.56c-.05,0-.08.01-.08.04h0s-.02.05-.02.06h0v.51c0,.07.03.11.1.11h0c.06,0,.14.01.26.03h0c.12.02.25.03.38.06h0c.13.02.25.04.37.06h0c.12.01.2.03.26.04h0c.35.06.64.2.83.42h0c.2.22.3.48.3.79h0c0,.08-.02.16-.06.25h0c-.03.08-.08.17-.11.27h0l-4.28,11.57c-.04.1-.08.15-.15.15h0s-.03,0-.05-.03h0l-.05-.05h0s-.03-.03-.03-.06h0l-4.66-11.32c-.04-.09-.09-.21-.13-.37h0c-.03-.15-.06-.28-.06-.39h0c0-.32.08-.56.24-.73h0c.16-.18.37-.32.6-.41h0c.24-.1.5-.15.77-.19h0c.27-.03.51-.07.74-.11h.19s.07-.01.08-.04h0s.02-.05.02-.07h0v-.51s0-.05-.01-.07h0s-.03-.03-.09-.03h-8.89c-.06,0-.1.03-.1.1h0v.51c0,.07.04.11.1.11h0s.05,0,.11.02h0c.07,0,.14.02.2.03h0c.08,0,.16.03.24.05h0c.07.01.15.03.21.05h0c.07.01.17.05.3.1h0c.12.05.25.11.38.2h0c.14.1.26.2.38.34h0c.12.13.23.3.31.48h0l6.8,16.48c.06.19.2.29.41.29h1.92c.2,0,.36-.02.47-.07h0c.11-.04.21-.17.29-.39h0l5.05-13.66c.15-.39.29-.8.44-1.22h0c.15-.42.33-.82.55-1.19h0c.21-.37.47-.69.78-.96h0c.31-.28.7-.46,1.18-.56h.48c.05,0,.09,0,.1-.03h0s.01-.04.01-.07h0v-.51s0-.04-.01-.06h0s-.05-.04-.1-.04h-6.99Z"/>
        </g>
      </g>
    </g>
  </g>
  <g id="g1770">
    <g id="g1772">
      <g id="g1778">
        <g id="g1780">
          <path id="path1794" class="cls-7" d="M433.84,322.35c-.95.23-1.84.55-2.64.95h0c-.81.41-1.54.91-2.2,1.49h0c-.65.59-1.22,1.23-1.68,1.94h0c-.46.72-.82,1.49-1.06,2.32h0c-.25.83-.38,1.69-.38,2.59h0c0,1.02.12,1.94.34,2.76h0c.24.82.55,1.56.94,2.19h0c.38.64.83,1.2,1.34,1.68h0c.51.48,1.07.9,1.63,1.26h0c.56.35,1.15.64,1.74.87h0c.6.22,1.16.41,1.71.55h0c.55.14,1.05.23,1.5.29h0c.46.05.83.08,1.14.08h0c1.04,0,2.02-.14,2.95-.39h0c.94-.26,1.79-.63,2.57-1.09h0c.79-.47,1.49-1.01,2.12-1.64h0c.64-.63,1.17-1.31,1.62-2.05h0c.45-.73.78-1.5,1.02-2.31h0c.23-.81.35-1.62.35-2.43h0c0-.87-.12-1.71-.37-2.51h0c-.24-.81-.59-1.56-1.04-2.25h0c-.43-.69-.97-1.33-1.58-1.89h0c-.61-.56-1.28-1.05-2.03-1.46h0c-.74-.41-1.53-.72-2.38-.94h0c-.85-.23-1.73-.34-2.63-.34h0c-1.04,0-2.04.12-2.99.34M434.74,339.63c-.64-.24-1.22-.57-1.74-1h0c-.52-.42-.99-.91-1.4-1.48h0c-.41-.57-.75-1.18-1.03-1.84h0c-.28-.65-.49-1.33-.63-2.03h0c-.15-.71-.22-1.41-.22-2.12h0c0-.65.06-1.3.19-1.96h0c.12-.65.3-1.26.54-1.84h0c.24-.59.52-1.13.87-1.62h0c.35-.5.75-.94,1.21-1.3h0c.46-.37.97-.65,1.54-.86h0c.57-.21,1.19-.32,1.85-.32h0c.75,0,1.44.11,2.08.34h0c.64.22,1.22.53,1.75.93h0c.52.4.99.87,1.4,1.41h0c.41.55.74,1.14,1.01,1.79h0c.28.65.49,1.34.63,2.05h0c.14.72.21,1.45.21,2.2h0c0,1.03-.12,2.02-.37,2.99h0c-.25.96-.63,1.81-1.14,2.55h0c-.51.75-1.15,1.34-1.93,1.79h0c-.77.45-1.68.68-2.74.68h0c-.75,0-1.44-.12-2.08-.36"/>
        </g>
      </g>
    </g>
  </g>
  <g id="g1796">
    <g id="g1798">
      <g id="g1804">
        <g id="g1806">
          <path id="path1820" class="cls-14" d="M497.31,322.33c-.87.23-1.69.53-2.45.94h0c-.76.41-1.45.9-2.08,1.48h0c-.63.59-1.17,1.24-1.61,1.97h0c-.45.73-.79,1.53-1.04,2.39h0c-.24.87-.36,1.79-.36,2.77h0c0,.96.12,1.85.37,2.7h0c.25.83.6,1.61,1.05,2.3h0c.46.7.99,1.32,1.62,1.87h0c.63.55,1.31,1.03,2.07,1.4h0c.76.38,1.57.66,2.42.86h0c.87.2,1.75.3,2.68.3h0c.39,0,.85-.05,1.36-.14h0c.51-.09,1.01-.19,1.52-.29h0c.5-.1.96-.2,1.4-.29h0c.43-.1.78-.14,1.04-.14h0c.08,0,.17.02.26.05h0c.08.04.23.06.43.06h0s.06,0,.1-.03h0s.06-.04.07-.07h0l1.8-3.97c.05-.08.09-.17.13-.28h0c.03-.11.06-.17.06-.2h0c0-.07-.02-.12-.05-.14h0s-.06-.04-.08-.04h-.66s-.08,0-.1.01h0s-.05.03-.06.07h0c-.3.54-.65,1.05-1.06,1.54h0c-.41.5-.88.93-1.41,1.31h0c-.54.38-1.12.68-1.76.9h0c-.63.21-1.32.33-2.07.33h0c-.88,0-1.66-.11-2.36-.36h0c-.7-.23-1.31-.56-1.83-.97h0c-.52-.41-.97-.9-1.35-1.47h0c-.37-.56-.67-1.17-.91-1.83h0c-.24-.66-.4-1.35-.51-2.08h0c-.11-.72-.16-1.46-.16-2.2h0c0-.7.05-1.37.14-2.03h0c.1-.65.24-1.27.45-1.86h0c.2-.57.46-1.11.79-1.59h0c.32-.49.73-.9,1.21-1.26h0c.48-.35,1.04-.61,1.67-.81h0c.64-.2,1.37-.29,2.21-.29h0c.65,0,1.25.06,1.81.19h0c.55.13,1.07.33,1.54.6h0c.48.29.91.65,1.31,1.09h0c.39.45.75,1,1.08,1.65h0s.05.08.1.15h0c.04.07.1.15.15.24h0c.05.08.11.16.15.24h0c.05.07.08.13.1.15h0c.02.05.09.07.2.07h0c.11,0,.17,0,.2,0h0c.13,0,.21,0,.25-.02h0s.06-.06.06-.11h0v-4.25c0-.15-.06-.23-.16-.23h-.6s-.11.02-.21.06h0c-.1.03-.16.05-.18.05h0c-.05,0-.13-.02-.23-.05h0c-.11-.03-.23-.07-.35-.12h0c-.13-.05-.26-.1-.41-.15h0c-.14-.06-.28-.1-.41-.14h0c-.8-.19-1.57-.36-2.31-.5h0c-.74-.14-1.52-.22-2.32-.22h0c-.95,0-1.86.11-2.73.33"/>
        </g>
      </g>
    </g>
  </g>
  <g id="g1822">
    <g id="g1824">
      <g id="g1830">
        <g id="g1832">
          <path id="path1846" class="cls-3" d="M556.43,322.56s-.06.02-.06.06h0s.03.11.07.2h0c.05.09.07.17.07.23h0s0,.03,0,.05h0s0,.02,0,.01h0l-5.25,15.23c-.15.44-.33.78-.55,1.03h0c-.22.25-.45.43-.68.56h0c-.23.13-.46.21-.68.25h0c-.23.04-.42.07-.58.07h0c-.07,0-.11.03-.11.11h0v.51c0,.07.03.1.11.1h7.06c.05,0,.07-.01.08-.04h0s.02-.05.02-.06h0v-.51s0-.05-.02-.07h0s-.03-.04-.08-.04h-.34c-.2,0-.43-.02-.68-.05h0c-.26-.04-.51-.1-.76-.18h0c-.24-.08-.46-.19-.65-.33h0c-.18-.15-.32-.33-.38-.55h0s-.02-.05-.03-.08h0s0-.06,0-.08h0s.02-.11.06-.2h0c.03-.09.08-.24.15-.43h0c.07-.21.17-.49.3-.86h0c.12-.36.28-.82.47-1.39h0c.19-.56.43-1.26.7-2.07h0s.02-.05.05-.1h0c.03-.06.07-.12.13-.18h0c.05-.07.11-.12.19-.17h0c.08-.05.17-.07.29-.07h4.71c.1,0,.19.02.26.07h0c.07.05.14.11.19.18h0c.05.07.08.12.1.19h0c.02.06.04.1.05.12h0l1.71,4.72c.02.07.02.13.02.18h0c0,.22-.05.4-.17.55h0c-.11.15-.26.26-.43.36h0c-.17.1-.37.16-.58.21h0c-.22.05-.43.08-.64.11h0c-.21.02-.4.04-.57.05h0c-.19,0-.32.02-.41.03h0s-.05,0-.08,0h0s-.07,0-.1,0h0s-.07.01-.09.04h0s-.02.05-.02.07h0v.51s0,.04.02.06h0s.05.04.09.04h9.16s.08-.01.09-.04h0s.02-.05.02-.06h0v-.5s0-.06-.02-.08h0s-.05-.04-.09-.04h0c-.19,0-.39-.04-.6-.1h0c-.21-.07-.38-.14-.5-.2h0c-.26-.11-.47-.23-.64-.33h0c-.17-.11-.3-.23-.42-.37h0c-.11-.13-.2-.28-.28-.46h0c-.08-.17-.16-.38-.25-.63h0l-5.52-15.5s-.04-.07-.07-.08h0s-.06-.02-.07-.02h-3.79ZM555.5,332s-.04-.07-.04-.13h0s0-.08.02-.13h0s.02-.09.04-.13h0l1.64-4.75c.05-.12.11-.2.2-.27h0c.09-.07.16-.1.24-.1h0c.07,0,.15.03.24.08h0c.09.06.15.15.19.27h0l1.74,4.77s.03.08.04.12h0s.01.07.01.11h0c0,.06-.01.1-.04.14h0s-.1.06-.19.06h-3.92c-.07,0-.13-.02-.16-.05"/>
        </g>
      </g>
    </g>
  </g>
  <g id="g1848">
    <g id="g1850">
      <g id="g1856">
        <g id="g1858">
          <path id="path1872" class="cls-8" d="M617.76,322.33c-.88.23-1.69.53-2.45.94h0c-.77.41-1.45.9-2.08,1.48h0c-.63.59-1.16,1.24-1.61,1.97h0c-.45.73-.79,1.53-1.03,2.39h0c-.25.87-.37,1.79-.37,2.77h0c0,.96.13,1.85.38,2.7h0c.25.83.6,1.61,1.05,2.3h0c.45.7,1,1.32,1.62,1.87h0c.63.55,1.32,1.03,2.08,1.4h0c.75.38,1.56.66,2.42.86h0c.87.2,1.75.3,2.67.3h0c.41,0,.86-.05,1.36-.14h0c.51-.09,1.01-.19,1.52-.29h0c.5-.1.97-.2,1.4-.29h0c.43-.1.78-.14,1.04-.14h0c.08,0,.17.02.25.05h0c.08.04.24.06.44.06h0s.06,0,.1-.03h0s.06-.04.08-.07h0l1.8-3.97c.04-.08.08-.17.12-.28h0c.03-.11.06-.17.06-.2h0c0-.07-.02-.12-.05-.14h0s-.06-.04-.08-.04h-.66s-.08,0-.1.01h0s-.05.03-.06.07h0c-.3.54-.65,1.05-1.06,1.54h0c-.42.5-.88.93-1.42,1.31h0c-.53.38-1.12.68-1.76.9h0c-.64.21-1.32.33-2.07.33h0c-.87,0-1.66-.11-2.36-.36h0c-.7-.23-1.31-.56-1.83-.97h0c-.52-.41-.96-.9-1.34-1.47h0c-.37-.56-.68-1.17-.91-1.83h0c-.24-.66-.41-1.35-.51-2.08h0c-.11-.72-.16-1.46-.16-2.2h0c0-.7.05-1.37.14-2.03h0c.1-.65.24-1.27.44-1.86h0c.21-.57.48-1.11.8-1.59h0c.33-.49.73-.9,1.21-1.26h0c.48-.35,1.05-.61,1.68-.81h0c.64-.2,1.37-.29,2.2-.29h0c.65,0,1.26.06,1.81.19h0c.56.13,1.08.33,1.55.6h0c.48.29.91.65,1.3,1.09h0c.39.45.76,1,1.08,1.65h0s.04.08.09.15h0c.05.07.1.15.16.24h0c.06.08.11.16.15.24h0c.05.07.08.13.1.15h0c.02.05.09.07.2.07h0c.11,0,.17,0,.2,0h0c.12,0,.21,0,.25-.02h0s.06-.06.06-.11h0v-4.25c0-.15-.05-.23-.15-.23h-.61s-.11.02-.21.06h0c-.11.03-.16.05-.18.05h0c-.06,0-.13-.02-.23-.05h0c-.11-.03-.23-.07-.35-.12h0c-.13-.05-.26-.1-.41-.15h0c-.14-.06-.28-.1-.41-.14h0c-.8-.19-1.57-.36-2.31-.5h0c-.74-.14-1.52-.22-2.32-.22h0c-.95,0-1.86.11-2.73.33"/>
        </g>
      </g>
    </g>
  </g>
  <g id="g1874">
    <g id="g1876">
      <g id="g1882">
        <g id="g1884">
          <path id="path1898" class="cls-10" d="M671.02,322.56c-.07,0-.1.03-.1.1h0v.71c0,.06.03.1.1.1h0c.3,0,.58.03.83.08h0c.25.06.46.14.63.26h0c.17.12.3.29.39.48h0c.09.2.14.45.14.75h0v13.15c0,.42-.05.75-.14.99h0c-.1.25-.23.43-.4.56h0c-.18.13-.38.21-.64.25h0c-.25.04-.52.06-.83.06h0s-.07.01-.08.03h0s-.02.05-.02.07h0v.7s.01.04.02.06h0s.04.04.08.04h7.71c.06,0,.08,0,.1-.03h0s.01-.05.01-.07h0v-.7c0-.07-.04-.1-.11-.1h0c-.3,0-.58-.03-.82-.08h0c-.25-.05-.47-.14-.63-.26h0c-.17-.12-.3-.28-.39-.48h0c-.1-.2-.14-.45-.14-.75h0v-13.15c0-.42.05-.76.15-1h0c.09-.24.23-.43.4-.56h0c.18-.12.38-.21.64-.25h0c.25-.04.52-.06.83-.06h0s.07-.01.08-.04h0s.02-.05.02-.06h0v-.71s0-.04-.02-.06h0s-.05-.04-.08-.04h-7.72Z"/>
        </g>
      </g>
    </g>
  </g>
  <g id="g1900">
    <g id="g1902">
      <g id="g1908">
        <g id="g1910">
          <path id="path1924" class="cls-12" d="M727.96,322.56s-.05.02-.05.06h0s.02.11.07.2h0c.05.09.07.17.07.23h0s0,.03,0,.05h0s-.01.02-.01.01h0l-5.24,15.23c-.15.44-.34.78-.56,1.03h0c-.21.25-.44.43-.66.56h0c-.24.13-.46.21-.69.25h0c-.22.04-.41.07-.57.07h0c-.07,0-.1.03-.1.11h0v.51c0,.07.03.1.1.1h7.06s.08-.01.09-.04h0s.01-.05.01-.06h0v-.51s0-.05-.01-.07h0s-.05-.04-.09-.04h-.34c-.2,0-.43-.02-.69-.05h0c-.25-.04-.51-.1-.75-.18h0c-.25-.08-.46-.19-.65-.33h0c-.19-.15-.32-.33-.38-.55h0s-.02-.05-.03-.08h0s-.01-.06-.01-.08h0s.03-.11.06-.2h0c.03-.09.08-.24.15-.43h0c.07-.21.17-.49.29-.86h0c.13-.36.29-.82.48-1.39h0c.19-.56.43-1.26.7-2.07h0s.02-.05.05-.1h0c.03-.06.07-.12.12-.18h0c.06-.07.12-.12.2-.17h0c.07-.05.17-.07.29-.07h4.72c.1,0,.19.02.26.07h0c.08.05.14.11.18.18h0c.05.07.09.12.1.19h0c.02.06.05.1.05.12h0l1.71,4.72c.02.07.03.13.03.18h0c0,.22-.06.4-.17.55h0c-.12.15-.26.26-.44.36h0c-.17.1-.37.16-.57.21h0c-.21.05-.42.08-.63.11h0c-.21.02-.41.04-.59.05h0c-.18,0-.31.02-.41.03h0s-.05,0-.08,0h0s-.07,0-.11,0h0s-.07.01-.08.04h0s-.02.05-.02.07h0v.51s0,.04.02.06h0s.04.04.08.04h9.17s.07-.01.08-.04h0s.02-.05.02-.06h0v-.5s0-.06-.02-.08h0s-.03-.04-.08-.04h0c-.2,0-.39-.04-.6-.1h0c-.21-.07-.37-.14-.5-.2h0c-.26-.11-.48-.23-.64-.33h0c-.16-.11-.3-.23-.41-.37h0c-.11-.13-.2-.28-.29-.46h0c-.08-.17-.16-.38-.25-.63h0l-5.52-15.5s-.04-.07-.07-.08h0s-.05-.02-.07-.02h-3.78ZM727.03,332s-.03-.07-.03-.13h0s0-.08,0-.13h0s.02-.09.04-.13h0l1.65-4.75c.05-.12.11-.2.2-.27h0c.09-.07.17-.1.24-.1h0c.07,0,.15.03.23.08h0c.09.06.16.15.2.27h0l1.74,4.77s.03.08.04.12h0s.02.07.02.11h0c0,.06-.02.1-.05.14h0s-.09.06-.19.06h-3.92c-.08,0-.13-.02-.16-.05"/>
        </g>
      </g>
    </g>
  </g>
  <g id="g1926">
    <g id="g1928">
      <g id="g1934">
        <g id="g1936">
          <path id="path1950" class="cls-5" d="M198.26,131.79l-32.41,103.37c-2.3,7.16-4.35,12.88-6.14,17.16h0c-1.79,4.28-3.68,7.57-5.66,9.88h0c-1.99,2.29-4.29,3.87-6.9,4.69h0c-2.63.83-5.91,1.44-9.88,1.83h40.85c-3.2-.26-6.04-.68-8.53-1.25h0c-2.5-.58-4.32-1.89-5.47-3.93h0c-1.15-2.05-1.57-5.14-1.25-9.3h0c.32-4.15,1.63-9.94,3.93-17.36h0l3.65-11.5h42.18c3.84,12.53,8.89,22.95,15.16,31.25h0c6.26,8.31,13.14,14.96,20.61,19.95h0c7.48,4.99,15.27,8.54,23.39,10.64h0c8.12,2.11,16.08,3.17,23.88,3.17h0c4.86,0,9.56-.36,14.1-1.06h0c4.54-.7,8.79-1.63,12.75-2.78h0l-.19-.96c-2.56.64-5.34,1.18-8.35,1.63h0c-3,.45-6.16.67-9.49.67h0c-6.4,0-13.23-.99-20.52-2.97h0c-7.29-1.99-14.41-5.5-21.37-10.55h0c-6.98-5.05-13.5-11.89-19.56-20.52h0c-6.08-8.63-11.22-19.59-15.43-32.89h0l-28.38-89.18h-.96ZM191.93,156.73l20.33,66.93h-41.23l20.91-66.93Z"/>
        </g>
      </g>
    </g>
  </g>
  <g id="g1952">
    <g id="g1954">
      <g id="g1960">
        <g id="g1962">
          <path id="path1976" class="cls-16" d="M253.3,134.48l-5.56,32.6c.51-1.53,1.25-4.02,2.2-7.47h0c.96-3.45,2.65-6.91,5.09-10.36h0c2.42-3.45,5.81-6.49,10.16-9.11h0c4.34-2.62,10.23-3.93,17.64-3.93h.19v113.92c0,3.96-.36,7.09-1.05,9.39h0c-.7,2.3-1.66,4.1-2.87,5.37h0c-1.22,1.28-2.72,2.18-4.51,2.69h0c-1.79.51-3.76.89-5.94,1.15h44.1c-2.05-.26-3.96-.64-5.75-1.15h0c-1.79-.51-3.3-1.41-4.51-2.69h0c-1.22-1.27-2.18-3.07-2.87-5.37h0c-.7-2.3-1.06-5.43-1.06-9.39h0v-113.92h.19c7.29,0,13.14,1.31,17.55,3.93h0c4.41,2.62,7.79,5.66,10.16,9.11h0c2.36,3.45,4.06,6.9,5.08,10.36h0c1.03,3.45,1.79,5.94,2.31,7.47h0l-5.76-32.6h-74.79Z"/>
        </g>
      </g>
    </g>
  </g>
  <g id="g1978">
    <g id="g1980">
      <g id="g1986">
        <g id="g1988">
          <path id="path2002" class="cls-11" d="M379.97,135.73c-8.5,3.26-16.02,7.96-22.53,14.09h0c-6.53,6.14-11.77,13.59-15.73,22.34h0c-3.97,8.76-5.94,18.7-5.94,29.82h0c0,10.87,1.98,20.62,5.94,29.25h0c3.96,8.63,9.2,15.92,15.73,21.86h0c6.51,5.95,14,10.53,22.44,13.72h0c8.44,3.2,17.06,4.8,25.89,4.8h0c11.12,0,21.89-2.56,32.31-7.67h0c10.42-5.12,19.33-13.3,26.75-24.55h0l-1.54-.57c-5.88,8.44-13.16,14.7-21.86,18.79h0c-8.69,4.09-17.71,6.14-27.04,6.14h0c-7.67,0-15.19-1.41-22.53-4.22h0c-7.36-2.81-13.91-7.03-19.65-12.66h0c-5.76-5.62-10.39-12.69-13.91-21.19h0c-3.52-8.5-5.27-18.44-5.27-29.81h0c0-10.74,1.59-20.04,4.8-27.91h0c3.19-7.86,7.39-14.31,12.56-19.37h0c5.18-5.04,10.99-8.79,17.45-11.22h0c6.45-2.43,12.94-3.65,19.46-3.65h0c5.75,0,11.22.94,16.4,2.78h0c5.17,1.86,9.68,4.54,13.52,8.06h0c3.83,3.52,6.71,7.83,8.63,12.94h0c1.92,5.11,2.43,10.93,1.53,17.45h0l6.14-27.99c-7.29-5.49-14.93-9.56-22.92-12.18h0c-7.99-2.61-16.01-3.93-24.07-3.93h0c-9.21,0-18.06,1.63-26.56,4.9"/>
        </g>
      </g>
    </g>
  </g>
  <g id="g2004">
    <g id="g2006">
      <g id="g2012">
        <g id="g2014">
          <path id="path2028" class="cls-13" d="M615.72,134.48c2.16.26,4.15.64,5.94,1.15h0c1.79.51,3.29,1.41,4.51,2.69h0c1.21,1.27,2.18,3.07,2.88,5.37h0c.69,2.3,1.05,5.43,1.05,9.39h0v97.04c0,3.96-.36,7.09-1.05,9.39h0c-.7,2.3-1.67,4.1-2.88,5.37h0c-1.22,1.28-2.72,2.18-4.51,2.69h0c-1.79.51-3.78.89-5.94,1.15h44.1c-2.05-.26-3.96-.64-5.75-1.15h0c-1.79-.51-3.32-1.41-4.6-2.69h0c-1.27-1.27-2.27-3.07-2.97-5.37h0c-.7-2.3-1.05-5.43-1.05-9.39h0v-22.44h11.12c10.61,0,19.47-2.3,26.56-6.91h0c7.09-4.6,12.43-10.35,16.01-17.25h0c3.57-6.91,5.37-14.39,5.37-22.44h0c0-8.06-1.76-15.54-5.27-22.44h0c-3.52-6.9-8.82-12.66-15.92-17.26h0c-7.09-4.6-16.01-6.9-26.75-6.9h-40.84ZM645.44,152.31c0-3.58.19-6.42.57-8.53h0c.38-2.11.99-3.74,1.83-4.89h0c.83-1.15,1.94-1.89,3.35-2.2h0c1.41-.32,3.07-.48,4.99-.48h.38c7.16,0,13.16,2.21,18.03,6.62h0c4.85,4.41,8.46,9.94,10.82,16.58h0c2.37,6.65,3.55,13.87,3.55,21.67h0c0,7.79-1.22,15.02-3.64,21.67h0c-2.43,6.65-6.05,12.18-10.84,16.59h0c-4.8,4.41-10.77,6.61-17.93,6.61h-11.12v-73.64Z"/>
        </g>
      </g>
    </g>
  </g>
  <g id="g2030">
    <g id="g2032">
      <g id="g2038">
        <g id="g2040">
          <path id="path2054" class="cls-2" d="M764.24,135.73c-8.51,3.26-16.01,7.96-22.53,14.09h0c-6.53,6.14-11.77,13.59-15.73,22.34h0c-3.96,8.76-5.94,18.7-5.94,29.82h0c0,10.87,1.98,20.62,5.94,29.25h0c3.96,8.63,9.2,15.92,15.73,21.86h0c6.52,5.95,14,10.53,22.43,13.72h0c8.45,3.2,17.07,4.8,25.89,4.8h0c11.12,0,21.89-2.56,32.31-7.67h0c10.42-5.12,19.34-13.3,26.75-24.55h0l-1.53-.57c-5.88,8.44-13.17,14.7-21.86,18.79h0c-8.69,4.09-17.71,6.14-27.04,6.14h0c-7.67,0-15.18-1.41-22.53-4.22h0c-7.35-2.81-13.9-7.03-19.65-12.66h0c-5.75-5.62-10.39-12.69-13.9-21.19h0c-3.52-8.5-5.27-18.44-5.27-29.81h0c0-10.74,1.59-20.04,4.79-27.91h0c3.2-7.86,7.38-14.31,12.56-19.37h0c5.18-5.04,11-8.79,17.46-11.22h0c6.45-2.43,12.94-3.65,19.46-3.65h0c5.75,0,11.21.94,16.39,2.78h0c5.18,1.86,9.69,4.54,13.52,8.06h0c3.84,3.52,6.71,7.83,8.63,12.94h0c1.92,5.11,2.43,10.93,1.54,17.45h0l6.13-27.99c-7.28-5.49-14.93-9.56-22.91-12.18h0c-7.98-2.61-16.01-3.93-24.07-3.93h0c-9.21,0-18.05,1.63-26.56,4.9"/>
        </g>
      </g>
    </g>
  </g>
  <g id="g2056">
    <g id="g2058">
      <g id="g2064">
        <g id="g2066">
          <path id="path2080" class="cls-9" d="M526.34,173.25c-2.98.98-5.65,2.43-8,4.34h0c-2.36,1.91-4.27,4.33-5.73,7.27h0c-1.47,2.93-2.2,6.4-2.2,10.4h0c0,2.85.38,5.84,1.13,9h0c.76,3.16,1.8,6.38,3.13,9.66h0c-5.15,2.94-9.15,6.42-11.99,10.46h0c-2.85,4.05-4.6,8.22-5.26,12.54h0c-.67,4.31-.36,8.58.93,12.8h0c1.29,4.22,3.44,8.02,6.47,11.4h0c3.02,3.38,6.86,6.09,11.52,8.14h0c4.67,2.03,9.98,3.06,15.94,3.06h0c5.24,0,9.86-.6,13.86-1.8h0c4-1.2,7.56-2.95,10.67-5.27h0c2.39,1.52,4.66,2.58,6.79,3.2h0c2.14.63,4.18.94,6.14.94h0c3.1,0,5.91-.66,8.4-2h0c2.48-1.34,4.62-2.94,6.4-4.8h0l-.26-.26c-1.34.63-2.89.94-4.67.94h0c-4.27,0-9.25-1.96-14.94-5.87h0c3.56-5.07,6.07-11,7.54-17.8h0c1.46-6.8,2.2-14.16,2.2-22.07h-17.07v.4c3.38,0,6.14,1.34,8.27,4h0c2.13,2.67,3.51,5.96,4.14,9.86h0c.61,3.92.37,8.07-.74,12.47h0c-1.12,4.4-3.22,8.33-6.33,11.8h0c-4.89-3.65-9.82-8.29-14.8-13.93h0c-4.98-5.65-9.47-11.53-13.47-17.67h0c-4-6.13-7.26-12.17-9.8-18.13h0c-2.53-5.96-3.8-11.11-3.8-15.47h0c0-2.75.45-5.24,1.34-7.46h0c.89-2.23,2.09-4.11,3.6-5.67h0c1.52-1.56,3.23-2.75,5.14-3.6h0c1.9-.84,3.84-1.26,5.8-1.26h0c2.05,0,4.05.46,6,1.4h0c1.97.93,3.72,2.35,5.27,4.27h0c1.56,1.91,2.82,4.4,3.79,7.46h0c.97,3.07,1.52,6.74,1.61,11h.13l3.07-14.8c-2.14-3.47-5.11-6.06-8.93-7.8h0c-3.83-1.74-7.87-2.6-12.14-2.6h0c-3.11,0-6.15.5-9.13,1.47M524.14,262.26c-4.45-1.83-8.07-4.21-10.87-7.14h0c-2.81-2.93-4.82-6.24-6.06-9.93h0c-1.25-3.69-1.79-7.37-1.61-11.06h0c.18-3.69,1.07-7.25,2.67-10.67h0c1.59-3.42,3.86-6.28,6.8-8.6h0c1.96,4.45,4.36,8.94,7.2,13.47h0c2.84,4.53,5.98,8.86,9.4,12.99h0c3.42,4.14,6.95,8.02,10.6,11.66h0c3.64,3.65,7.24,6.85,10.8,9.6h0c-3.73,1.6-8.09,2.4-13.06,2.4h0c-6.14,0-11.43-.91-15.86-2.73"/>
        </g>
      </g>
    </g>
  </g>
  <g id="g2082">
    <g id="g2084">
      <g id="g2090">
        <g id="g2092">
          <path id="path2106" class="cls-6" d="M492.34,301.74c-116.4-.2-359.07.06-473.03,1.4h0l473.03-.52,474.72.52c-92.15-1.08-269.53-1.46-395.61-1.46h0c-29.85,0-56.82.02-79.11.06"/>
        </g>
      </g>
    </g>
  </g>
</svg>